<svg width="1354" height="1295" version="1.1" xmlns="http://www.w3.org/2000/svg" desc="Created with imagetracer.js version 1.2.6" ><path fill="rgb(82,49,108)" stroke="rgb(82,49,108)" stroke-width="1" opacity="0.9333333333333333" d="M 647.5 230 L 675.5 230 L 679.5 232 L 687.5 232 L 692.5 235 L 703.5 236 L 709.5 239 L 718 240 L 718 242 L 722 242 Q 720.8 245 724.5 244 L 734.5 249 L 736 248.5 L 738.5 252 Q 745.3 253.3 749 257.5 Q 748.3 259.8 750.5 259 L 754 261.5 Q 753.3 263.8 755.5 263 L 762 267 L 763.5 270 Q 766.8 268.9 766 271.5 L 771.5 278 L 775 279 L 776.5 283 L 779 284.5 L 780.5 287 Q 782.8 286.3 782 288.5 L 788.5 297 Q 790.8 296.3 790 298.5 L 791 302 L 794 303.5 L 795 308 L 798 309.5 L 800 312.5 L 799.5 314 L 802 315.5 L 807 328.5 L 810 332.5 L 812 341.5 L 816 349.5 L 816 354.5 L 818 356.5 Q 817 363.5 820 366.5 L 820 376.5 L 822 379.5 L 822 410.5 L 822 412.5 L 819 415.5 L 820 416.5 Q 820.8 422.8 818 425.5 L 818 432.5 L 816 434.5 L 816 439.5 Q 813.2 441.2 814 446.5 L 810 453.5 L 810 457.5 L 807 460.5 Q 809.5 462 806 463.5 L 806 466.5 L 802 473.5 L 802 477 L 799 478.5 L 798 485.5 L 795 488.5 L 794 493.5 L 791 496.5 L 790 501.5 L 787 504.5 L 786 509.5 L 780.5 518 Q 777.9 517.2 779 520.5 L 778 525 L 775 526.5 L 770 539 L 767 540.5 Q 766.3 546.8 762 549.5 L 762 553 L 759 554.5 L 756.5 561 Q 754.3 560.3 755 562.5 L 748 573.5 L 748 577 Q 745.3 575.9 746 578.5 Q 743.3 579.6 744 583 Q 741 581.8 742 585.5 L 734 596.5 L 732 603 L 729 604.5 L 726.5 610 Q 723.9 609.2 725 612.5 L 722.5 616 L 721 616.5 L 721 618.5 L 716 625.5 L 716 627.5 L 712 631.5 L 712 635 L 709 636.5 L 708 641 L 705 642.5 L 704 647 L 701 648.5 L 698.5 654 Q 696.3 653.3 697 655.5 L 696 659 L 693 660.5 L 692 664.5 L 685 673.5 L 685 676 L 681 678.5 L 678.5 682 L 672.5 686 L 657.5 687 L 651 684.5 Q 651.8 682.3 649.5 683 L 645 679.5 L 643.5 677 Q 640.9 677.8 642 674.5 L 641 672 L 638 670.5 L 635.5 665 L 633 663.5 L 634 662.5 L 630 658.5 L 629 654.5 Q 622.2 648.7 620 640 Q 617.3 641.1 618 638.5 L 612 628 Q 609 629.3 610 625.5 Q 607.3 624.4 608 621 Q 605.3 622.1 606 619.5 Q 596.1 607.9 589.5 593 Q 587.3 593.8 588 591.5 L 581.5 581 Q 578.5 581.9 580 577.5 Q 574.8 574.9 575 568 L 572 566.5 L 569.5 561 Q 566.9 561.8 568 558.5 L 562 549.5 Q 564.3 548.3 561.5 547 Q 558.9 547.8 560 544.5 L 555 536.5 L 555 534 L 552 532.5 L 552 529.5 Q 546.6 526.1 546 519 Q 542.7 520.3 544 515.5 Q 541.3 514.4 542 511 Q 539.3 512.1 540 509.5 L 534 496 Q 531 497.3 532 493.5 Q 529.3 492.4 530 489 Q 526.7 490.3 528 485.5 L 520 469.5 Q 522.5 468 519 466.5 L 516 460.5 L 517 458 L 514 456.5 Q 514.7 450.8 512 448.5 Q 514.5 447 511 445.5 L 510 439.5 L 507 435.5 L 508 432.5 L 506 430.5 L 506 422.5 L 503 411.5 L 503 409.5 L 502 407.5 L 502 374.5 L 503 368 Q 505.7 369.1 505 366.5 Q 507.2 365.3 506 360.5 L 509 355.5 L 510 345.5 L 517 331.5 L 518 325 L 521 323.5 Q 518.5 322 522 320.5 L 522 318.5 L 528 310.5 L 528 307 Q 530.7 308.1 530 305.5 L 533 304 L 535 298.5 L 541.5 290 Q 543.8 290.8 543 288.5 L 546 287 L 555.5 275 L 559 272.5 L 560.5 270 L 564 269 L 565.5 266 L 568.5 264 L 572 263 L 573.5 260 L 577 259 L 578.5 256 L 591 249.5 L 589 248.5 L 598.5 246 L 606 241.5 L 605.5 240 L 609.5 240 L 619.5 236 L 624.5 236 L 633 234 L 633.5 232 L 640.5 232 L 647.5 230 Z M 652 319 L 648 322 L 642 322 L 640 324 L 636 324 L 625 329 L 623 332 L 621 332 L 617 335 L 615 338 L 613 339 L 611 342 L 609 343 L 607 346 L 603 348 L 602 352 Q 603 354 601 353 Q 594 358 593 369 Q 590 370 592 372 L 588 382 L 588 389 L 586 389 L 586 396 L 585 397 Q 588 400 586 408 L 588 411 L 587 413 L 590 422 Q 593 423 591 425 L 598 439 Q 601 440 599 442 L 601 442 L 603 446 Q 602 448 606 447 L 607 451 Q 606 453 609 452 L 610 455 L 613 456 L 614 459 L 625 464 L 630 469 L 641 472 L 643 472 Q 646 475 654 474 L 656 476 L 672 476 Q 673 472 681 474 L 683 472 L 685 473 L 690 470 L 697 469 L 705 462 Q 709 463 711 460 L 712 458 L 715 456 L 716 454 L 719 452 L 720 449 L 728 440 L 734 426 L 734 424 L 735 422 L 735 420 Q 737 418 736 414 L 739 408 L 739 394 Q 735 392 738 391 Q 739 385 736 384 L 735 372 L 728 361 L 727 356 L 719 345 L 717 343 L 715 341 L 707 333 L 704 334 L 702 329 L 699 329 L 686 322 L 681 322 L 678 319 L 674 319 L 672 319 L 670 320 L 669 319 L 659 319 L 657 319 L 655 320 L 652 319 Z " /><path fill="rgb(82,49,108)" stroke="rgb(82,49,108)" stroke-width="1" opacity="0.9333333333333333" d="M 368.5 328 L 380.5 328 L 382.5 330 L 386.5 330 L 394.5 334 L 404.5 336 L 406.5 338 L 409.5 338 L 417.5 342 L 422.5 342 L 425.5 345 L 432.5 346 L 435.5 349 L 437.5 349 L 442.5 350 L 444.5 352 L 448.5 352 L 462.5 359 L 471.5 360 L 474.5 363 L 476.5 363 L 486.5 366 L 492 370.5 L 489 381.5 L 490 382.5 L 490 391.5 L 492 393.5 L 492 403.5 L 490.5 405 L 487.5 404 L 482.5 404 L 479.5 401 L 475.5 401 L 468.5 398 L 466.5 398 Q 462 398.5 461.5 395 L 459.5 395 L 453.5 394 L 450.5 391 L 442.5 390 L 437.5 387 L 435 388 Q 436.1 385.3 433.5 386 L 430.5 384 L 428.5 385 L 425 384 L 423.5 381 L 418.5 380 L 416.5 380 Q 412 380.5 411.5 377 L 403 376 L 401.5 373 L 399.5 374 L 392.5 371 L 387.5 370 L 384.5 367 Q 378.8 367.7 376.5 365 L 375.5 366 Q 367.5 365.3 363 367 Q 364.1 369.7 361.5 369 L 354.5 371 L 350.5 374 L 347.5 373 L 344.5 376 L 337.5 377 L 334.5 380 L 326.5 381 L 325 382.5 Q 325.9 385.9 320.5 384 L 311.5 389 L 310.5 387 L 308.5 390 L 300.5 391 L 299 392.5 Q 299.9 395.9 294.5 394 L 285.5 398 Q 284.3 395.8 283 398.5 L 282.5 400 L 280.5 400 L 274 401 L 272.5 404 Q 265.6 403.1 263 406.5 Q 263.9 409.9 258.5 408 L 246.5 414 L 239.5 415 L 238 416.5 Q 238.9 419.9 233.5 418 L 229.5 420 L 228 419.5 L 226.5 422 L 218.5 425 L 214.5 425 L 213 426.5 Q 213.9 429.5 209.5 428 L 203 438.5 L 204 439.5 L 201 442.5 L 202 449 Q 198.5 447.9 200 455.5 L 199 458.5 L 197 463.5 L 198 465.5 L 197 467.5 L 197 469.5 L 195 480.5 L 193 482.5 Q 195.3 483.8 194 488.5 L 192 490.5 Q 193 499 189 502.5 L 190 504.5 L 189 506.5 L 190 508.5 L 187 510.5 L 188 513.5 L 187 516.5 L 185 523.5 L 186 527.5 L 183 532.5 L 183 534.5 Q 184.3 540.3 181 541.5 L 182 546.5 L 182 548.5 L 180 551.5 L 180 553.5 L 179 559.5 L 177 561.5 L 178 562.5 L 178 569 Q 175 567.8 176 571.5 L 174 580.5 L 174 589.5 L 171 592.5 L 172 594.5 Q 168.9 601.1 170 611 Q 167.3 609.9 168 612.5 L 166 621.5 L 166 631 L 163 632.5 L 162 650.5 L 159 654.5 L 158 669.5 L 155 673.5 Q 156.1 682.1 153 686.5 L 154 689.5 L 151 694.5 L 150 713 L 147 714.5 L 146 731.5 L 143 736.5 L 142 751.5 L 139 755.5 L 138 772.5 L 135 776.5 L 134 792.5 L 131 796.5 L 130 813.5 L 127 817.5 L 126 832.5 L 123 836.5 L 122 852.5 L 119 859.5 L 120 862.5 L 117 872.5 L 117 874.5 L 115 878.5 L 116 880.5 L 115 882.5 L 116 884.5 L 113 887.5 L 114 888.5 L 114 893.5 L 111 898.5 L 111 901.5 L 112 904.5 L 110 906.5 L 110 912.5 L 107 923.5 Q 109.5 925 106 926.5 L 105 948.5 L 106 953.5 L 109.5 959 L 112 960.5 L 111 962.5 L 114.5 966 L 121.5 968 L 124.5 971 L 134.5 971 L 139.5 968 L 144.5 968 L 152.5 964 L 156.5 964 L 158.5 962 L 167.5 961 L 170.5 958 L 176.5 958 Q 184.2 953.2 195.5 952 L 197.5 950 L 200.5 951 L 202.5 949 L 212.5 947 L 215.5 944 L 221.5 944 L 229.5 940 L 232.5 940 L 234 940.5 L 235.5 938 L 244.5 937 L 249.5 934 L 252.5 934 L 273.5 926 L 275.5 926 L 284.5 923 L 288.5 923 L 291.5 920 L 296.5 920 L 304 918 Q 302.6 914.3 308.5 916 L 312.5 914 L 323.5 913 L 327.5 910 L 342.5 910 L 344.5 912 L 352.5 913 L 358.5 916 L 362.5 916 L 364.5 918 Q 369.8 917.2 371.5 920 L 377.5 920 L 380.5 923 L 389.5 924 L 397.5 928 L 410 930 Q 408.9 932.7 411.5 932 L 414.5 933 L 421.5 934 L 425.5 937 L 430.5 937 L 437.5 940 L 443 940 Q 441.7 943.3 446.5 942 Q 449.2 944.8 455.5 944 L 459.5 947 L 467.5 948 L 471.5 951 L 474.5 950 Q 477.1 949.3 476 952 L 480.5 952 Q 483.2 954.8 489.5 954 L 496.5 958 L 501.5 958 L 505.5 961 L 514.5 962 L 517.5 965 L 519.5 964 L 521.5 966 Q 526.8 965.2 528.5 968 L 534.5 968 L 537.5 971 L 546.5 972 L 552.5 975 L 554.5 975 L 562.5 978 L 567.5 978 L 575.5 982 L 580.5 982 L 584.5 985 L 592.5 986 L 594.5 988 L 598.5 988 L 608.5 992 L 613.5 992 L 616.5 995 L 625.5 996 L 629.5 999 L 639.5 1000 L 653.5 1006 L 659.5 1006 L 666.5 1009 L 671.5 1006 L 677.5 1006 L 690.5 1000 L 694.5 1000 L 701.5 998 L 703.5 996 L 711.5 995 L 714.5 992 L 720.5 992 L 722.5 990 L 727.5 990 Q 729.8 987 735 988 Q 733.6 984 740.5 986 L 745.5 985 L 749.5 982 L 759.5 980 L 761.5 978 L 766.5 978 L 769.5 976 L 778.5 975 L 781.5 972 L 790.5 971 L 793.5 968 L 798.5 968 L 808.5 964 L 813 964 Q 811.6 960 818.5 962 L 823.5 961 L 827.5 958 L 832.5 958 L 838.5 956 L 840.5 954 L 845.5 954 Q 846.9 951.4 851.5 952 L 853.5 950 L 856.5 951 L 860.5 948 L 869.5 947 L 872.5 944 L 877.5 944 L 890.5 940 L 892 940.5 Q 891.3 938.3 893.5 939 L 905.5 936 L 907.5 934 L 919 932 Q 917.6 928.3 923.5 930 Q 925.8 927 931 928 L 931.5 926 L 933.5 926 L 948.5 923 L 951.5 920 L 956.5 920 L 971.5 914 L 982.5 913 L 985 912 L 985.5 910 L 1005.5 910 L 1008.5 913 L 1024.5 916 L 1026.5 918 L 1033.5 920 L 1039.5 920 L 1042.5 923 L 1050.5 924 L 1055.5 927 L 1057.5 926 L 1060.5 928 L 1071.5 930 L 1078.5 934 L 1083.5 934 L 1088.5 937 L 1096.5 938 L 1111.5 944 L 1115.5 944 L 1119.5 947 L 1128.5 948 L 1131.5 951 L 1133.5 951 L 1135.5 950 L 1137.5 952 L 1149 954 Q 1147.7 957.3 1152.5 956 Q 1154.8 958.7 1160.5 958 L 1164.5 961 L 1172.5 962 L 1175.5 964 L 1185.5 966 L 1187.5 968 L 1193.5 968 L 1199.5 971 L 1213.5 971 L 1216.5 968 L 1219.5 968 L 1225 965 Q 1223.5 961.2 1226.5 962 L 1232 954.5 L 1232 950.5 L 1235 946.5 L 1235 943.5 L 1233 939.5 L 1232 936.5 L 1232 934.5 Q 1233.2 925.3 1229 921.5 L 1230 917.5 L 1228 915.5 L 1227 901.5 L 1224 897.5 L 1223 883.5 L 1220 880.5 L 1219 865.5 L 1216 861.5 L 1215 851.5 L 1213 849.5 L 1215 846.5 L 1212 842.5 L 1211 826.5 L 1208 823.5 L 1207 809.5 L 1204 804.5 L 1203 791.5 L 1200 787.5 Q 1200.9 779.1 1198 774.5 L 1199 773.5 L 1196 770.5 Q 1197 762.5 1194 758.5 L 1194 756.5 L 1195 754.5 L 1192 750.5 L 1192 744.5 L 1190 738.5 L 1190 736.5 L 1188 732.5 L 1187 718.5 L 1186 716 Q 1182.5 717.1 1184 709.5 Q 1186.5 708 1183 706.5 L 1182 699.5 L 1180 696.5 L 1180 690.5 L 1178 686.5 L 1178 680.5 L 1176 678.5 Q 1177.5 673 1175 671.5 L 1176 669.5 L 1174 662.5 L 1175 661.5 L 1172 658.5 L 1173 656.5 L 1172 654.5 Q 1174.5 653 1171 651.5 L 1170 645.5 L 1171 644.5 L 1168 641.5 L 1169 638.5 L 1167 634.5 L 1166 625 L 1164 624.5 L 1164 622.5 L 1165 619.5 L 1162 615.5 L 1162 608.5 L 1160 604.5 L 1160 602.5 L 1161 600.5 L 1159 598.5 L 1158 590.5 L 1156 587.5 L 1157 585.5 L 1155 581.5 L 1154 572.5 L 1152 567.5 L 1152 565.5 L 1150 562.5 L 1150 554.5 L 1148 549.5 L 1149 547.5 L 1147 543.5 L 1145 531.5 L 1143 529.5 Q 1146.5 528 1144 526.5 Q 1144.7 523.9 1142 525 L 1142 522.5 L 1142 520.5 Q 1142.7 513.7 1139 511.5 L 1140 507 Q 1136.5 508.1 1138 500.5 L 1137 499.5 L 1137 491.5 L 1134 488.5 L 1133 475.5 L 1130 469.5 L 1129 456.5 L 1126 452.5 Q 1127 445.5 1124 442.5 L 1125 440.5 L 1122 439 L 1123 435.5 L 1120 431 Q 1117.3 432.1 1118 429.5 L 1111.5 425 L 1099.5 422 L 1095.5 419 L 1092.5 419 L 1087.5 415 L 1079.5 414 Q 1078.3 411 1074 412 Q 1075.3 409 1071.5 410 L 1056.5 403 L 1054.5 403 Q 1052.5 400.2 1048 401 Q 1049.1 398.3 1046.5 399 L 1044.5 399 L 1039.5 398 L 1036.5 395 Q 1031.5 396 1030.5 393 L 1028.5 393 Q 1026.5 390.2 1022 391 L 1021.5 389 L 1019.5 389 L 1017 389 L 1016.5 387 L 1011 387 L 1011 385 L 1006 385 L 1006 383.5 L 1004.5 384 L 1001 383 Q 1002.3 379.7 997.5 381 Q 996 377.5 994.5 380 L 977.5 373 L 975.5 373 L 967.5 369 L 965.5 369 Q 962.9 369.7 964 367 L 961.5 367 L 957.5 365 L 955.5 365 Q 950.8 363.8 949.5 366 Q 948 363.5 946.5 367 L 942 367 Q 943.1 369.7 940.5 369 L 937.5 370 L 930.5 372 L 928.5 374 L 925 373 L 923.5 376 L 914.5 377 L 911.5 380 L 904.5 381 L 900.5 384 L 898.5 384 L 885.5 388 L 883.5 390 L 881.5 390 L 875.5 391 L 872.5 394 L 865.5 395 Q 865 398.5 860.5 398 Q 859 395.5 857.5 399 Q 850.3 399.8 846.5 404 L 837.5 406 L 833 401.5 L 833 399.5 Q 836.5 397.8 835 392 L 833 391.5 L 836 387.5 L 837 380.5 L 835 377.5 L 836 372 Q 833 373 834 370 L 837 368.5 L 837.5 366 L 844.5 366 L 856.5 360 L 864.5 359 L 868.5 356 L 878 354 Q 876.6 350.3 882.5 352 Q 885.5 349 891.5 349 L 894.5 346 L 901.5 345 L 904.5 342 L 909.5 342 L 911.5 340 L 914.5 340 L 922.5 336 L 930.5 335 L 933.5 332 L 940.5 330 L 945.5 330 L 947.5 328 L 956.5 328 L 959.5 330 L 970.5 332 L 974.5 335 L 981.5 336 L 993.5 342 L 998.5 342 L 1004.5 346 L 1008.5 346 L 1011.5 349 L 1013.5 349 L 1028.5 354 L 1030.5 356 L 1034.5 356 L 1038.5 359 L 1046 360 Q 1044.7 363.7 1050.5 362 L 1067.5 370 L 1071.5 370 L 1074.5 373 L 1077.5 373 L 1083.5 376 L 1087.5 376 L 1101.5 383 L 1107.5 384 L 1110.5 387 L 1112.5 387 L 1119.5 390 L 1124 390 Q 1122.9 392.7 1125.5 392 L 1132 394 Q 1130.9 396.7 1133.5 396 Q 1142.1 398.4 1146 405.5 Q 1145.3 407.8 1147.5 407 L 1154 416.5 L 1153.5 418 Q 1155.8 417.3 1155 419.5 L 1158 426.5 L 1158 428.5 L 1160 432.5 L 1161 443.5 L 1164 449.5 L 1164 456.5 Q 1166.3 457.8 1165 462.5 L 1168 468.5 L 1169 480.5 L 1172 484.5 L 1173 498.5 L 1176 502.5 L 1177 516.5 L 1180 521.5 L 1181 534.5 L 1184 539.5 L 1185 553.5 L 1188 556.5 L 1188 564.5 L 1190 572.5 L 1192 574.5 L 1192 581.5 L 1194 588.5 Q 1191.5 590 1195 591.5 L 1196 600.5 Q 1198.8 603.2 1198 609.5 L 1200 612.5 L 1200 618.5 L 1202 625.5 L 1201 626.5 L 1204 629.5 L 1204 636.5 Q 1206.8 639.2 1206 645.5 L 1208 647.5 L 1208 654.5 Q 1210.8 657.2 1210 663.5 L 1212 665.5 L 1212 672.5 Q 1214.7 675.8 1214 682.5 L 1216 684.5 L 1216 691.5 Q 1218.7 694.8 1218 701.5 L 1220 703.5 L 1220 709.5 Q 1222.8 712.2 1222 718.5 L 1224 721.5 L 1224 727.5 L 1226 730.5 L 1226 732.5 Q 1225.3 738.2 1228 740.5 L 1228 742.5 L 1227 745.5 L 1230 749.5 Q 1228.8 756.2 1232 758.5 L 1232 760.5 Q 1231 765.5 1234 766.5 L 1234 775 Q 1236.7 773.9 1236 776.5 L 1235 778.5 L 1235 780.5 L 1238 784.5 Q 1236.3 791.8 1240 793.5 L 1239 796.5 L 1242 802.5 L 1242 808.5 L 1244 812.5 L 1243 815.5 L 1246 821.5 L 1247 833.5 L 1250 838.5 L 1251 852.5 L 1254 857.5 L 1255 873.5 L 1258 876.5 L 1259 890.5 L 1260 893 L 1262 893.5 L 1262 901.5 Q 1264.6 904.4 1264 910.5 L 1266 912.5 L 1267 933.5 L 1270 938.5 L 1270 947.5 L 1267 952.5 L 1267 957.5 L 1267 959.5 L 1266 967.5 L 1263 970.5 L 1257 983 L 1255 983 Q 1256.5 986.7 1253.5 986 L 1249 992 L 1240.5 998 L 1235 1000 Q 1236.3 1003.3 1231.5 1002 L 1223.5 1006 L 1195.5 1007 Q 1193.8 1004.3 1187.5 1006 L 1184.5 1003 Q 1178.8 1004.3 1177.5 1001 L 1175.5 1001 L 1172.5 999 L 1170.5 999 L 1168.5 1000 L 1166.5 998 L 1160.5 996 L 1155.5 996 L 1154 994.5 Q 1154.9 991.1 1149.5 993 Q 1148 989.5 1146.5 992 Q 1142 992.5 1141.5 989 Q 1135.5 990 1133.5 987 L 1131.5 987 L 1127.5 985 L 1125.5 986 L 1121.5 983 L 1119.5 983 L 1108.5 979 L 1104.5 979 L 1101.5 977 L 1099.5 977 Q 1095.8 978 1097 975 L 1093.5 975 Q 1092 977.5 1090.5 974 L 1084.5 973 L 1082.5 971 L 1080.5 971 L 1076.5 969 L 1072.5 969 L 1070.5 967 L 1068.5 968 L 1050.5 961 L 1048.5 961 L 1037.5 957 L 1034.5 958 L 1030.5 955 L 1028.5 956 L 1025.5 954 L 1019 953 Q 1020.1 950.3 1017.5 951 L 1015.5 951 L 1013 951 Q 1014.3 948 1010.5 949 L 1008.5 949 L 1003.5 947 L 1000.5 948 L 996.5 945 Q 995.5 949 989.5 948 L 987.5 948 L 983.5 950 L 981.5 949 L 979.5 951 Q 973.5 949.5 972 952.5 Q 972.9 955.9 967.5 954 Q 966 956.5 960.5 955 L 954.5 958 Q 953 955.5 951.5 959 L 946.5 959 L 946 961 L 944.5 961 L 942.5 962 L 940.5 962 Q 936.4 965.9 927.5 965 L 921.5 968 Q 920 965.5 918.5 969 L 914.5 969 L 909.5 972 L 907.5 972 L 901.5 973 L 897.5 976 L 896.5 975 L 891.5 978 L 889.5 977 L 883.5 980 L 881 979 Q 882.3 982 878.5 981 Q 875.6 983.6 869.5 983 L 863.5 986 Q 862 983.5 860.5 987 L 855.5 987 Q 853.8 990.5 848 989 Q 849.1 991.7 846.5 991 L 833 994 Q 834.1 996.7 831.5 996 Q 830 993.5 828.5 997 Q 820.7 995.7 818.5 1000 L 816.5 1000 L 811.5 1002 L 809.5 1002 L 803.5 1003 L 800.5 1006 L 789.5 1007 L 786.5 1010 Q 781.2 1009.2 779.5 1012 L 777.5 1011 Q 775.8 1013.8 770.5 1013 L 766.5 1016 L 756.5 1017 L 753.5 1020 L 743.5 1021 L 739.5 1024 L 736.5 1023 L 735 1026 L 723.5 1027 L 722 1028.5 Q 722.9 1031.9 717.5 1030 Q 716.3 1032.3 711.5 1031 L 708.5 1034 L 703.5 1034 L 694.5 1038 L 692.5 1037 L 688.5 1040 L 677.5 1041 Q 677 1044.5 672.5 1044 L 670.5 1044 L 664.5 1045 L 661.5 1044 L 659.5 1045 L 653 1044 L 651.5 1041 Q 645.2 1041.8 642.5 1039 L 640 1040 L 638.5 1037 Q 632.2 1037.8 629.5 1035 L 627.5 1035 L 621 1034 L 619.5 1031 L 608 1030 L 606.5 1027 Q 600.4 1027.6 597.5 1025 L 595.5 1026 Q 594.5 1023 589.5 1024 L 586.5 1021 L 579.5 1020 L 577.5 1021 L 575 1020 Q 576.3 1016.7 571.5 1018 Q 569.2 1015.3 563.5 1016 L 559.5 1013 L 555.5 1013 L 547.5 1009 L 545.5 1010 L 542 1009 Q 543.1 1005.5 535.5 1007 L 529 1006 Q 530.1 1003.3 527.5 1004 L 525.5 1003 L 523.5 1003 Q 521.3 1000 516 1001 Q 517.3 998 513.5 999 L 511.5 999 L 509 999 L 508.5 997 L 502.5 997 Q 501 993.5 499.5 996 L 494.5 993 L 489 993 Q 490.1 990.3 487.5 991 L 485.5 991 Q 482.3 988 476 989 Q 477.4 985 470.5 987 L 463 985 Q 464.4 981.3 458.5 983 L 441.5 977 L 439.5 977 L 433.5 975 L 430 975.5 L 428.5 973 Q 422 974.5 420.5 971 L 418.5 972 L 414.5 969 L 412.5 970 L 407.5 967 L 405.5 967 L 400.5 965 L 398.5 966 L 393.5 963 L 391.5 963 L 388.5 961 L 386.5 962 L 382.5 959 Q 376.8 959.7 374.5 957 L 371.5 958 L 368.5 955 Q 361.8 956.2 359.5 953 L 358.5 954 L 355.5 951 L 352.5 952 L 348.5 949 L 326.5 948 L 323.5 950 L 321.5 950 L 316.5 952 L 313.5 951 L 308.5 954 L 306.5 954 L 299.5 955 L 295.5 958 L 293.5 958 L 287.5 959 L 284.5 962 L 281.5 961 L 279.5 963 L 273.5 965 L 268.5 965 L 267 966.5 Q 267.9 969.9 262.5 968 L 254 970 Q 255.3 973.7 249.5 972 L 238.5 976 L 236.5 975 L 233.5 978 L 224.5 979 L 221.5 982 L 211.5 983 L 208.5 986 L 193.5 989 L 188.5 992 L 179.5 993 L 176.5 996 L 172.5 996 L 161.5 1000 Q 160 997.5 158.5 1001 L 147.5 1003 L 143.5 1006 Q 134.9 1004.9 130.5 1008 L 128.5 1007 L 126.5 1007 L 112.5 1006 L 110.5 1004 L 99.5 1000 L 87 990.5 Q 87.8 988.3 85.5 989 L 81.5 983 Q 79.3 983.8 80 981.5 Q 76.9 979.8 78.5 978 L 76 976.5 L 74 969 Q 70.7 970.3 72 965.5 L 70 960.5 L 70 958.5 Q 70.8 954.3 68 953.5 L 68 940.5 L 67 939.5 Q 69.7 937.8 68 931.5 L 70 929.5 L 72 908.5 L 75 904.5 L 74 900.5 Q 76.9 895.9 76 887.5 L 78 885.5 L 78 880.5 L 80 874.5 L 80 866 Q 83.3 867.3 82 862.5 L 83 861.5 L 84 848.5 L 87 844.5 L 87 842.5 L 88 828.5 L 90 826.5 Q 89.3 819.8 92 816.5 L 92 809.5 L 94 804.5 Q 91.5 803 95 801.5 L 96 787.5 L 99 784.5 L 100 768.5 L 103 764.5 L 104 748.5 L 107 743.5 L 108 728.5 L 110 726.5 L 112 716.5 L 112 707 Q 115 708.3 114 704.5 L 114 698.5 L 114 697 L 116 696.5 L 116 689.5 L 119 684.5 L 118 681.5 L 118 679.5 L 120 676.5 L 120 670.5 L 122 664.5 L 122 660.5 L 124 656.5 L 125 645.5 L 127 643.5 L 126 637 L 128 636.5 L 128 629.5 L 129 626.5 L 130 616.5 L 132 614.5 L 132 608.5 L 135 598.5 L 134 597.5 L 137 594.5 L 136 593.5 L 136 588.5 L 138 584.5 Q 136.5 579 139 577.5 L 138 575 Q 142 576.4 140 569.5 L 142 564.5 L 142 562.5 L 142 554.5 L 144 552.5 L 145 544.5 L 144 542 L 146 541.5 L 146 533.5 L 149 527.5 L 149 525.5 L 150 522.5 L 150 520.5 L 150 515.5 L 152 513.5 L 152 508.5 L 154 502.5 L 153 500.5 L 157 489.5 L 156 487.5 Q 159.3 483.8 158 475.5 L 161 469.5 L 160 466.5 Q 163 461.5 162 452.5 L 165 447.5 L 163.5 445 L 165 445.5 L 166 435.5 L 168 433.5 L 170 421 L 173 419.5 L 174 413 L 177 411.5 L 182.5 403 L 186.5 400 L 189 400 Q 187.9 397.3 190.5 398 L 194 397 Q 192.9 394.3 195.5 395 Q 196.9 392.4 201.5 393 L 204.5 390 L 209 390 Q 207.7 386.7 212.5 388 L 216.5 386 Q 219.5 383 225.5 383 L 229.5 380 L 237.5 378 L 239.5 376 L 242.5 376 L 248.5 373 L 252.5 373 L 254 371.5 Q 253.1 368.1 258.5 370 L 264 368 Q 262.6 364.3 268.5 366 L 275 364 L 275.5 362 L 277.5 362 L 281.5 360 L 289 359 L 290.5 356 L 294.5 356 L 300 354 Q 298.7 350.7 303.5 352 L 305.5 350 L 313.5 349 L 316.5 346 Q 323.5 346 326.5 342 L 330.5 342 L 332.5 340 L 335.5 340 L 343.5 336 L 351.5 335 L 354.5 332 L 358.5 332 L 368.5 328 Z " /><path fill="rgb(82,49,108)" stroke="rgb(82,49,108)" stroke-width="1" opacity="0.9333333333333333" d="M 326.5 658 Q 332.8 656.8 334 660.5 L 336 665 Q 338.7 663.9 338 666.5 L 342 671.5 L 342 675 Q 345 673.8 344 677.5 L 350 684.5 L 349.5 686 Q 351.8 685.3 351 687.5 L 352 688.5 L 352 702.5 L 349.5 707 L 346.5 708 L 344.5 708 Q 339.9 707.4 338.5 710 Q 330.8 706.8 326 700.5 L 325 696 L 322 694.5 L 321 690.5 L 314 679.5 L 314 665 L 317 663.5 Q 316.3 661.3 318.5 662 L 326.5 658 Z " /><path fill="rgb(82,49,108)" stroke="rgb(82,49,108)" stroke-width="1" opacity="0.9333333333333333" d="M 361.5 709 L 370.5 710 L 377 714.5 L 378.5 717 L 382 718 L 382 720 L 385 720 Q 383.9 722.7 386.5 722 L 396 729.5 L 398 746 L 391.5 750 L 389 750 L 388.5 752 L 382 752 L 380.5 749 L 376.5 749 L 359 736.5 Q 359.8 734.3 357.5 735 L 354 732.5 L 350 725.5 L 350 720.5 L 354.5 712 L 356 712.5 L 357.5 710 L 361.5 709 Z " /><path fill="rgb(82,49,108)" stroke="rgb(82,49,108)" stroke-width="1" opacity="0.9333333333333333" d="M 411.5 742 L 417.5 742 L 426 746 Q 424.8 749 428.5 748 L 447 758.5 L 448.5 761 L 451 762.5 L 451 773.5 L 446 781 Q 442.7 783.1 434.5 782 Q 429.5 777 420.5 776 L 411.5 769 L 407 768 L 405.5 765 Q 402.9 765.8 404 762.5 L 402 753.5 L 405.5 748 Q 408.1 748.8 407 745.5 L 411.5 742 Z " /><path fill="rgb(82,49,108)" stroke="rgb(82,49,108)" stroke-width="1" opacity="0.9333333333333333" d="M 467.5 770 L 471.5 770 L 481.5 775 L 488.5 776 L 502.5 784 L 505 784 Q 503.9 786.7 506.5 786 L 508 787.5 L 508 797.5 L 501.5 806 Q 497.7 808.7 489.5 807 L 475.5 800 L 470.5 800 L 462 794.5 Q 462.8 792.3 460.5 793 Q 456.9 791.1 457 785.5 L 458 782.5 L 458 780.5 L 460 775 Q 462.7 776.1 462 773.5 L 467.5 770 Z " /><path fill="rgb(82,49,108)" stroke="rgb(82,49,108)" stroke-width="1" opacity="0.9333333333333333" d="M 527.5 792 L 536.5 794 L 549.5 800 L 553.5 800 L 561 804.5 Q 560.3 806.8 562.5 806 Q 566.1 808.9 565 816.5 Q 562.8 817.8 564 822.5 L 562.5 824 L 559 826.5 Q 559.9 829.9 554.5 828 L 550.5 828 L 540.5 824 L 533 824 Q 534.1 821.3 531.5 822 L 523 820 L 521.5 817 Q 517.5 817.5 517 814.5 Q 517.5 810 514 809.5 L 514 804.5 L 518 798.5 L 519.5 796 Q 522.1 796.7 521 794 L 524.5 794 L 527.5 792 Z " /><path fill="rgb(82,49,108)" stroke="rgb(82,49,108)" stroke-width="1" opacity="0.9333333333333333" d="M 658.5 792 L 670.5 792 Q 681.1 794.9 688 801.5 Q 688.4 806.7 692 808.5 L 693 822.5 Q 690.8 823.7 692 828.5 L 688 834.5 L 688 837 L 677.5 844 L 658.5 845 L 653 844 L 651.5 841 L 647.5 840 Q 646.1 835.9 641 835.5 L 641.5 834 L 639 832.5 L 639.5 831 Q 636.1 831.9 638 826.5 L 636 820.5 Q 639.4 817.9 638 810.5 L 642 803 L 645 801.5 Q 644.3 799.3 646.5 800 L 658.5 792 Z " /><path fill="rgb(82,49,108)" stroke="rgb(82,49,108)" stroke-width="1" opacity="0.9333333333333333" d="M 587.5 808 Q 591.1 810.9 598.5 810 L 600.5 812 Q 607.2 811.3 610.5 814 L 617.5 814 Q 619.8 817.8 625 818.5 L 624 822.5 Q 627.8 824.4 626 831 Q 623.3 829.9 624 832.5 L 621.5 839 L 614.5 840 L 612.5 840 L 608.5 839 L 605.5 840 L 604.5 839 L 586.5 838 Q 579.2 835.8 575 830.5 L 575 821.5 L 573 819.5 L 578.5 810 Q 584.6 810.6 587.5 808 Z " /><path fill="rgb(0,0,0)" stroke="rgb(0,0,0)" stroke-width="1" opacity="0" d="M 0 0 L 1354 0 L 1354 1295 L 0 1295 L 0 0 Z M 648 230 L 641 232 L 634 232 L 633 234 L 625 236 L 620 236 L 610 240 L 606 240 L 606 242 L 599 246 L 589 249 L 591 250 L 579 256 L 577 259 L 574 260 L 572 263 L 569 264 L 566 266 L 564 269 L 561 270 L 559 273 L 556 275 L 546 287 L 543 289 Q 544 291 542 290 L 535 299 L 533 304 L 530 306 Q 531 308 528 307 L 528 311 L 522 319 L 522 321 Q 518 322 521 324 L 518 325 L 517 332 L 510 346 L 509 356 L 506 361 Q 507 365 505 367 Q 506 369 503 368 L 502 375 L 502 408 L 503 410 L 503 412 L 506 423 L 506 431 L 508 433 L 507 436 L 510 440 L 511 446 Q 514 447 512 449 Q 515 451 514 457 L 517 458 L 516 461 L 519 467 Q 522 468 520 470 L 528 486 Q 527 490 530 489 Q 529 492 532 494 Q 531 497 534 496 L 540 510 Q 539 512 542 511 Q 541 514 544 516 Q 543 520 546 519 Q 547 526 552 530 L 552 533 L 555 534 L 555 537 L 560 545 Q 559 548 562 547 Q 564 548 562 550 L 568 559 Q 567 562 570 561 L 572 567 L 575 568 Q 575 575 580 578 Q 578 582 582 581 L 588 592 Q 587 594 590 593 Q 596 608 606 620 Q 605 622 608 621 Q 607 624 610 626 Q 609 629 612 628 L 618 639 Q 617 641 620 640 Q 622 649 629 655 L 630 659 L 634 663 L 633 664 L 636 665 L 638 671 L 641 672 L 642 675 Q 641 678 644 677 L 645 680 L 650 683 Q 652 682 651 685 L 658 687 L 673 686 L 679 682 L 681 679 L 685 676 L 685 674 L 692 665 L 693 661 L 696 659 L 697 656 Q 696 653 699 654 L 701 649 L 704 647 L 705 643 L 708 641 L 709 637 L 712 635 L 712 632 L 716 628 L 716 626 L 721 619 L 721 617 L 723 616 L 725 613 Q 724 609 727 610 L 729 605 L 732 603 L 734 597 L 742 586 Q 741 582 744 583 Q 743 580 746 579 Q 745 576 748 577 L 748 574 L 755 563 Q 754 560 757 561 L 759 555 L 762 553 L 762 550 Q 766 547 767 541 L 770 539 L 775 527 L 778 525 L 779 521 Q 778 517 781 518 L 786 510 L 787 505 L 790 502 L 791 497 L 794 494 L 795 489 L 798 486 L 799 479 L 802 477 L 802 474 L 806 467 L 806 464 Q 809 462 807 461 L 810 458 L 810 454 L 814 447 Q 813 441 816 440 L 816 435 L 818 433 L 818 426 Q 821 423 820 417 L 819 416 L 822 413 L 822 411 L 822 380 L 820 377 L 820 367 Q 817 364 818 357 L 816 355 L 816 350 L 812 342 L 810 333 L 807 329 L 802 316 L 800 314 L 800 313 L 798 310 L 795 308 L 794 304 L 791 302 L 790 299 Q 791 296 789 297 L 782 289 Q 783 286 781 287 L 779 285 L 777 283 L 775 279 L 772 278 L 766 272 Q 767 269 764 270 L 762 267 L 756 263 Q 753 264 754 262 L 751 259 Q 748 260 749 258 Q 745 253 739 252 L 736 249 L 735 249 L 725 244 Q 721 245 722 242 L 718 242 L 718 240 L 710 239 L 704 236 L 693 235 L 688 232 L 680 232 L 676 230 L 648 230 Z M 369 328 L 359 332 L 355 332 L 352 335 L 344 336 L 336 340 L 333 340 L 331 342 L 327 342 Q 324 346 317 346 L 314 349 L 306 350 L 304 352 Q 299 351 300 354 L 295 356 L 291 356 L 289 359 L 282 360 L 278 362 L 276 362 L 275 364 L 269 366 Q 263 364 264 368 L 259 370 Q 253 368 254 372 L 253 373 L 249 373 L 243 376 L 240 376 L 238 378 L 230 380 L 226 383 Q 219 383 217 386 L 213 388 Q 208 387 209 390 L 205 390 L 202 393 Q 197 392 196 395 Q 193 394 194 397 L 191 398 Q 188 397 189 400 L 187 400 L 183 403 L 177 412 L 174 413 L 173 420 L 170 421 L 168 434 L 166 436 L 165 446 L 165 448 L 162 453 Q 163 462 160 467 L 161 470 L 158 476 Q 159 484 156 488 L 157 490 L 153 501 L 154 503 L 152 509 L 152 514 L 150 516 L 150 521 L 150 523 L 149 526 L 149 528 L 146 534 L 146 542 L 144 542 L 145 545 L 144 553 L 142 555 L 142 563 L 142 565 L 140 570 Q 142 576 138 575 L 139 578 Q 137 579 138 585 L 136 589 L 136 594 L 137 595 L 134 598 L 135 599 L 132 609 L 132 615 L 130 617 L 129 627 L 128 630 L 128 637 L 126 637 L 127 644 L 125 646 L 124 657 L 122 661 L 122 665 L 120 671 L 120 677 L 118 680 L 118 682 L 119 685 L 116 690 L 116 697 L 114 697 L 114 699 L 114 705 Q 115 708 112 707 L 112 717 L 110 727 L 108 729 L 107 744 L 104 749 L 103 765 L 100 769 L 99 785 L 96 788 L 95 802 Q 91 803 94 805 L 92 810 L 92 817 Q 89 820 90 827 L 88 829 L 87 843 L 87 845 L 84 849 L 83 862 L 82 863 Q 83 867 80 866 L 80 875 L 78 881 L 78 886 L 76 888 Q 77 896 74 901 L 75 905 L 72 909 L 70 930 L 68 932 Q 70 938 67 940 L 68 941 L 68 954 Q 71 954 70 959 L 70 961 L 72 966 Q 71 970 74 969 L 76 977 L 79 978 Q 77 980 80 982 Q 79 984 82 983 L 86 989 Q 88 988 87 991 L 100 1000 L 111 1004 L 113 1006 L 127 1007 L 129 1007 L 131 1008 Q 135 1005 144 1006 L 148 1003 L 159 1001 Q 160 997 162 1000 L 173 996 L 177 996 L 180 993 L 189 992 L 194 989 L 209 986 L 212 983 L 222 982 L 225 979 L 234 978 L 237 975 L 239 976 L 250 972 Q 255 974 254 970 L 263 968 Q 268 970 267 967 L 269 965 L 274 965 L 280 963 L 282 961 L 285 962 L 288 959 L 294 958 L 296 958 L 300 955 L 307 954 L 309 954 L 314 951 L 317 952 L 322 950 L 324 950 L 327 948 L 349 949 L 353 952 L 356 951 L 359 954 L 360 953 Q 362 956 369 955 L 372 958 L 375 957 Q 377 960 383 959 L 387 962 L 389 961 L 392 963 L 394 963 L 399 966 L 401 965 L 406 967 L 408 967 L 413 970 L 415 969 L 419 972 L 421 971 Q 422 975 429 973 L 430 976 L 434 975 L 440 977 L 442 977 L 459 983 Q 464 981 463 985 L 471 987 Q 477 985 476 989 Q 482 988 486 991 L 488 991 Q 490 990 489 993 L 495 993 L 500 996 Q 501 993 503 997 L 509 997 L 509 999 L 512 999 L 514 999 Q 517 998 516 1001 Q 521 1000 524 1003 L 526 1003 L 528 1004 Q 530 1003 529 1006 L 536 1007 Q 543 1006 542 1009 L 546 1010 L 548 1009 L 556 1013 L 560 1013 L 564 1016 Q 569 1015 572 1018 Q 576 1017 575 1020 L 578 1021 L 580 1020 L 587 1021 L 590 1024 Q 595 1023 596 1026 L 598 1025 Q 600 1028 607 1027 L 608 1030 L 620 1031 L 621 1034 L 628 1035 L 630 1035 Q 632 1038 639 1037 L 640 1040 L 643 1039 Q 645 1042 652 1041 L 653 1044 L 660 1045 L 662 1044 L 665 1045 L 671 1044 L 673 1044 Q 677 1045 678 1041 L 689 1040 L 693 1037 L 695 1038 L 704 1034 L 709 1034 L 712 1031 Q 716 1032 718 1030 Q 723 1032 722 1029 L 724 1027 L 735 1026 L 737 1023 L 740 1024 L 744 1021 L 754 1020 L 757 1017 L 767 1016 L 771 1013 Q 776 1014 778 1011 L 780 1012 Q 781 1009 787 1010 L 790 1007 L 801 1006 L 804 1003 L 810 1002 L 812 1002 L 817 1000 L 819 1000 Q 821 996 829 997 Q 830 993 832 996 Q 834 997 833 994 L 847 991 Q 849 992 848 989 Q 854 990 856 987 L 861 987 Q 862 983 864 986 L 870 983 Q 876 984 879 981 Q 882 982 881 979 L 884 980 L 890 977 L 892 978 L 897 975 L 898 976 L 902 973 L 908 972 L 910 972 L 915 969 L 919 969 Q 920 965 922 968 L 928 965 Q 936 966 941 962 L 943 962 L 945 961 L 946 961 L 947 959 L 952 959 Q 953 955 955 958 L 961 955 Q 966 957 968 954 Q 973 956 972 953 Q 973 949 980 951 L 982 949 L 984 950 L 988 948 L 990 948 Q 996 949 997 945 L 1001 948 L 1004 947 L 1009 949 L 1011 949 Q 1014 948 1013 951 L 1016 951 L 1018 951 Q 1020 950 1019 953 L 1026 954 L 1029 956 L 1031 955 L 1035 958 L 1038 957 L 1049 961 L 1051 961 L 1069 968 L 1071 967 L 1073 969 L 1077 969 L 1081 971 L 1083 971 L 1085 973 L 1091 974 Q 1092 977 1094 975 L 1097 975 Q 1096 978 1100 977 L 1102 977 L 1105 979 L 1109 979 L 1120 983 L 1122 983 L 1126 986 L 1128 985 L 1132 987 L 1134 987 Q 1136 990 1142 989 Q 1142 993 1147 992 Q 1148 990 1150 993 Q 1155 991 1154 995 L 1156 996 L 1161 996 L 1167 998 L 1169 1000 L 1171 999 L 1173 999 L 1176 1001 L 1178 1001 Q 1179 1004 1185 1003 L 1188 1006 Q 1194 1004 1196 1007 L 1224 1006 L 1232 1002 Q 1236 1003 1235 1000 L 1241 998 L 1249 992 L 1254 986 Q 1257 987 1255 983 L 1257 983 L 1263 971 L 1266 968 L 1267 960 L 1267 958 L 1267 953 L 1270 948 L 1270 939 L 1267 934 L 1266 913 L 1264 911 Q 1265 904 1262 902 L 1262 894 L 1260 893 L 1259 891 L 1258 877 L 1255 874 L 1254 858 L 1251 853 L 1250 839 L 1247 834 L 1246 822 L 1243 816 L 1244 813 L 1242 809 L 1242 803 L 1239 797 L 1240 794 Q 1236 792 1238 785 L 1235 781 L 1235 779 L 1236 777 Q 1237 774 1234 775 L 1234 767 Q 1231 766 1232 761 L 1232 759 Q 1229 756 1230 750 L 1227 746 L 1228 743 L 1228 741 Q 1225 738 1226 733 L 1226 731 L 1224 728 L 1224 722 L 1222 719 Q 1223 712 1220 710 L 1220 704 L 1218 702 Q 1219 695 1216 692 L 1216 685 L 1214 683 Q 1215 676 1212 673 L 1212 666 L 1210 664 Q 1211 657 1208 655 L 1208 648 L 1206 646 Q 1207 639 1204 637 L 1204 630 L 1201 627 L 1202 626 L 1200 619 L 1200 613 L 1198 610 Q 1199 603 1196 601 L 1195 592 Q 1191 590 1194 589 L 1192 582 L 1192 575 L 1190 573 L 1188 565 L 1188 557 L 1185 554 L 1184 540 L 1181 535 L 1180 522 L 1177 517 L 1176 503 L 1173 499 L 1172 485 L 1169 481 L 1168 469 L 1165 463 Q 1166 458 1164 457 L 1164 450 L 1161 444 L 1160 433 L 1158 429 L 1158 427 L 1155 420 Q 1156 417 1154 418 L 1154 417 L 1148 407 Q 1145 408 1146 406 Q 1142 398 1134 396 Q 1131 397 1132 394 L 1126 392 Q 1123 393 1124 390 L 1120 390 L 1113 387 L 1111 387 L 1108 384 L 1102 383 L 1088 376 L 1084 376 L 1078 373 L 1075 373 L 1072 370 L 1068 370 L 1051 362 Q 1045 364 1046 360 L 1039 359 L 1035 356 L 1031 356 L 1029 354 L 1014 349 L 1012 349 L 1009 346 L 1005 346 L 999 342 L 994 342 L 982 336 L 975 335 L 971 332 L 960 330 L 957 328 L 948 328 L 946 330 L 941 330 L 934 332 L 931 335 L 923 336 L 915 340 L 912 340 L 910 342 L 905 342 L 902 345 L 895 346 L 892 349 Q 885 349 883 352 Q 877 350 878 354 L 869 356 L 865 359 L 857 360 L 845 366 L 838 366 L 837 369 L 834 370 Q 833 373 836 372 L 835 378 L 837 381 L 836 388 L 833 392 L 835 392 Q 837 398 833 400 L 833 402 L 838 406 L 847 404 Q 850 400 858 399 Q 859 395 861 398 Q 865 399 866 395 L 873 394 L 876 391 L 882 390 L 884 390 L 886 388 L 899 384 L 901 384 L 905 381 L 912 380 L 915 377 L 924 376 L 925 373 L 929 374 L 931 372 L 938 370 L 941 369 Q 943 370 942 367 L 947 367 Q 948 363 950 366 Q 951 364 956 365 L 958 365 L 962 367 L 964 367 Q 963 370 966 369 L 968 369 L 976 373 L 978 373 L 995 380 Q 996 377 998 381 Q 1002 380 1001 383 L 1005 384 L 1006 384 L 1006 385 L 1011 385 L 1011 387 L 1017 387 L 1017 389 L 1020 389 L 1022 389 L 1022 391 Q 1026 390 1029 393 L 1031 393 Q 1032 396 1037 395 L 1040 398 L 1045 399 L 1047 399 Q 1049 398 1048 401 Q 1052 400 1055 403 L 1057 403 L 1072 410 Q 1075 409 1074 412 Q 1078 411 1080 414 L 1088 415 L 1093 419 L 1096 419 L 1100 422 L 1112 425 L 1118 430 Q 1117 432 1120 431 L 1123 436 L 1122 439 L 1125 441 L 1124 443 Q 1127 446 1126 453 L 1129 457 L 1130 470 L 1133 476 L 1134 489 L 1137 492 L 1137 500 L 1138 501 Q 1137 508 1140 507 L 1139 512 Q 1143 514 1142 521 L 1142 523 L 1142 525 Q 1145 524 1144 527 Q 1147 528 1143 530 L 1145 532 L 1147 544 L 1149 548 L 1148 550 L 1150 555 L 1150 563 L 1152 566 L 1152 568 L 1154 573 L 1155 582 L 1157 586 L 1156 588 L 1158 591 L 1159 599 L 1161 601 L 1160 603 L 1160 605 L 1162 609 L 1162 616 L 1165 620 L 1164 623 L 1164 625 L 1166 625 L 1167 635 L 1169 639 L 1168 642 L 1171 645 L 1170 646 L 1171 652 Q 1174 653 1172 655 L 1173 657 L 1172 659 L 1175 662 L 1174 663 L 1176 670 L 1175 672 Q 1178 673 1176 679 L 1178 681 L 1178 687 L 1180 691 L 1180 697 L 1182 700 L 1183 707 Q 1186 708 1184 710 Q 1183 717 1186 716 L 1187 719 L 1188 733 L 1190 737 L 1190 739 L 1192 745 L 1192 751 L 1195 755 L 1194 757 L 1194 759 Q 1197 763 1196 771 L 1199 774 L 1198 775 Q 1201 779 1200 788 L 1203 792 L 1204 805 L 1207 810 L 1208 824 L 1211 827 L 1212 843 L 1215 847 L 1213 850 L 1215 852 L 1216 862 L 1219 866 L 1220 881 L 1223 884 L 1224 898 L 1227 902 L 1228 916 L 1230 918 L 1229 922 Q 1233 925 1232 935 L 1232 937 L 1233 940 L 1235 944 L 1235 947 L 1232 951 L 1232 955 L 1227 962 Q 1224 961 1225 965 L 1220 968 L 1217 968 L 1214 971 L 1200 971 L 1194 968 L 1188 968 L 1186 966 L 1176 964 L 1173 962 L 1165 961 L 1161 958 Q 1155 959 1153 956 Q 1148 957 1149 954 L 1138 952 L 1136 950 L 1134 951 L 1132 951 L 1129 948 L 1120 947 L 1116 944 L 1112 944 L 1097 938 L 1089 937 L 1084 934 L 1079 934 L 1072 930 L 1061 928 L 1058 926 L 1056 927 L 1051 924 L 1043 923 L 1040 920 L 1034 920 L 1027 918 L 1025 916 L 1009 913 L 1006 910 L 986 910 L 985 912 L 983 913 L 972 914 L 957 920 L 952 920 L 949 923 L 934 926 L 932 926 L 931 928 Q 926 927 924 930 Q 918 928 919 932 L 908 934 L 906 936 L 894 939 Q 891 938 892 941 L 891 940 L 878 944 L 873 944 L 870 947 L 861 948 L 857 951 L 854 950 L 852 952 Q 847 951 846 954 L 841 954 L 839 956 L 833 958 L 828 958 L 824 961 L 819 962 Q 812 960 813 964 L 809 964 L 799 968 L 794 968 L 791 971 L 782 972 L 779 975 L 770 976 L 767 978 L 762 978 L 760 980 L 750 982 L 746 985 L 741 986 Q 734 984 735 988 Q 730 987 728 990 L 723 990 L 721 992 L 715 992 L 712 995 L 704 996 L 702 998 L 695 1000 L 691 1000 L 678 1006 L 672 1006 L 667 1009 L 660 1006 L 654 1006 L 640 1000 L 630 999 L 626 996 L 617 995 L 614 992 L 609 992 L 599 988 L 595 988 L 593 986 L 585 985 L 581 982 L 576 982 L 568 978 L 563 978 L 555 975 L 553 975 L 547 972 L 538 971 L 535 968 L 529 968 Q 527 965 522 966 L 520 964 L 518 965 L 515 962 L 506 961 L 502 958 L 497 958 L 490 954 Q 483 955 481 952 L 476 952 Q 477 949 475 950 L 472 951 L 468 948 L 460 947 L 456 944 Q 449 945 447 942 Q 442 943 443 940 L 438 940 L 431 937 L 426 937 L 422 934 L 415 933 L 412 932 Q 409 933 410 930 L 398 928 L 390 924 L 381 923 L 378 920 L 372 920 Q 370 917 365 918 L 363 916 L 359 916 L 353 913 L 345 912 L 343 910 L 328 910 L 324 913 L 313 914 L 309 916 Q 303 914 304 918 L 297 920 L 292 920 L 289 923 L 285 923 L 276 926 L 274 926 L 253 934 L 250 934 L 245 937 L 236 938 L 234 941 L 233 940 L 230 940 L 222 944 L 216 944 L 213 947 L 203 949 L 201 951 L 198 950 L 196 952 Q 184 953 177 958 L 171 958 L 168 961 L 159 962 L 157 964 L 153 964 L 145 968 L 140 968 L 135 971 L 125 971 L 122 968 L 115 966 L 111 963 L 112 961 L 110 959 L 106 954 L 105 949 L 106 927 Q 109 925 107 924 L 110 913 L 110 907 L 112 905 L 111 902 L 111 899 L 114 894 L 114 889 L 113 888 L 116 885 L 115 883 L 116 881 L 115 879 L 117 875 L 117 873 L 120 863 L 119 860 L 122 853 L 123 837 L 126 833 L 127 818 L 130 814 L 131 797 L 134 793 L 135 777 L 138 773 L 139 756 L 142 752 L 143 737 L 146 732 L 147 715 L 150 713 L 151 695 L 154 690 L 153 687 Q 156 682 155 674 L 158 670 L 159 655 L 162 651 L 163 633 L 166 631 L 166 622 L 168 613 Q 167 610 170 611 Q 169 601 172 595 L 171 593 L 174 590 L 174 581 L 176 572 Q 175 568 178 569 L 178 563 L 177 562 L 179 560 L 180 554 L 180 552 L 182 549 L 182 547 L 181 542 Q 184 540 183 535 L 183 533 L 186 528 L 185 524 L 187 517 L 188 514 L 187 511 L 190 509 L 189 507 L 190 505 L 189 503 Q 193 499 192 491 L 194 489 Q 195 484 193 483 L 195 481 L 197 470 L 197 468 L 198 466 L 197 464 L 199 459 L 200 456 Q 199 448 202 449 L 201 443 L 204 440 L 203 439 L 210 428 Q 214 429 213 427 L 215 425 L 219 425 L 227 422 L 228 420 L 230 420 L 234 418 Q 239 420 238 417 L 240 415 L 247 414 L 259 408 Q 264 410 263 407 Q 266 403 273 404 L 274 401 L 281 400 L 283 400 L 283 399 Q 284 396 286 398 L 295 394 Q 300 396 299 393 L 301 391 L 309 390 L 311 387 L 312 389 L 321 384 Q 326 386 325 383 L 327 381 L 335 380 L 338 377 L 345 376 L 348 373 L 351 374 L 355 371 L 362 369 Q 364 370 363 367 Q 368 365 376 366 L 377 365 Q 379 368 385 367 L 388 370 L 393 371 L 400 374 L 402 373 L 403 376 L 412 377 Q 412 381 417 380 L 419 380 L 424 381 L 425 384 L 429 385 L 431 384 L 434 386 Q 436 385 435 388 L 438 387 L 443 390 L 451 391 L 454 394 L 460 395 L 462 395 Q 462 399 467 398 L 469 398 L 476 401 L 480 401 L 483 404 L 488 404 L 491 405 L 492 404 L 492 394 L 490 392 L 490 383 L 489 382 L 492 371 L 487 366 L 477 363 L 475 363 L 472 360 L 463 359 L 449 352 L 445 352 L 443 350 L 438 349 L 436 349 L 433 346 L 426 345 L 423 342 L 418 342 L 410 338 L 407 338 L 405 336 L 395 334 L 387 330 L 383 330 L 381 328 L 369 328 Z M 327 658 L 319 662 Q 316 661 317 664 L 314 665 L 314 680 L 321 691 L 322 695 L 325 696 L 326 701 Q 331 707 339 710 Q 340 707 345 708 L 347 708 L 350 707 L 352 703 L 352 689 L 351 688 Q 352 685 350 686 L 350 685 L 344 678 Q 345 674 342 675 L 342 672 L 338 667 Q 339 664 336 665 L 334 661 Q 333 657 327 658 Z M 362 709 L 358 710 L 356 713 L 355 712 L 350 721 L 350 726 L 354 733 L 358 735 Q 360 734 359 737 L 377 749 L 381 749 L 382 752 L 389 752 L 389 750 L 392 750 L 398 746 L 396 730 L 387 722 Q 384 723 385 720 L 382 720 L 382 718 L 379 717 L 377 715 L 371 710 L 362 709 Z M 412 742 L 407 746 Q 408 749 406 748 L 402 754 L 404 763 Q 403 766 406 765 L 407 768 L 412 769 L 421 776 Q 429 777 435 782 Q 443 783 446 781 L 451 774 L 451 763 L 449 761 L 447 759 L 429 748 Q 425 749 426 746 L 418 742 L 412 742 Z M 468 770 L 462 774 Q 463 776 460 775 L 458 781 L 458 783 L 457 786 Q 457 791 461 793 Q 463 792 462 795 L 471 800 L 476 800 L 490 807 Q 498 809 502 806 L 508 798 L 508 788 L 507 786 Q 504 787 505 784 L 503 784 L 489 776 L 482 775 L 472 770 L 468 770 Z M 528 792 L 525 794 L 521 794 Q 522 797 520 796 L 518 799 L 514 805 L 514 810 Q 518 810 517 815 Q 518 817 522 817 L 523 820 L 532 822 Q 534 821 533 824 L 541 824 L 551 828 L 555 828 Q 560 830 559 827 L 563 824 L 564 823 Q 563 818 565 817 Q 566 809 563 806 Q 560 807 561 805 L 554 800 L 550 800 L 537 794 L 528 792 Z M 659 792 L 647 800 Q 644 799 645 802 L 642 803 L 638 811 Q 639 818 636 821 L 638 827 Q 636 832 640 831 L 639 833 L 642 834 L 641 836 Q 646 836 648 840 L 652 841 L 653 844 L 659 845 L 678 844 L 688 837 L 688 835 L 692 829 Q 691 824 693 823 L 692 809 Q 688 807 688 802 Q 681 795 671 792 L 659 792 Z M 588 808 Q 585 811 579 810 L 573 820 L 575 822 L 575 831 Q 579 836 587 838 L 605 839 L 606 840 L 609 839 L 613 840 L 615 840 L 622 839 L 624 833 Q 623 830 626 831 Q 628 824 624 823 L 625 819 Q 620 818 618 814 L 611 814 Q 607 811 601 812 L 599 810 Q 591 811 588 808 Z " /><path fill="rgb(0,0,0)" stroke="rgb(0,0,0)" stroke-width="1" opacity="0" d="M 651.5 319 L 654.5 320 L 656.5 319 L 658.5 319 L 668.5 319 L 669.5 320 L 671.5 319 L 673.5 319 L 677.5 319 L 680.5 322 L 685.5 322 L 698.5 329 L 702 329 L 704 334 L 706.5 333 L 715 340.5 L 716.5 343 L 719 344.5 L 727 355.5 L 728 360.5 L 735 371.5 L 736 383.5 Q 739.3 384.8 738 390.5 Q 735.5 392 739 393.5 L 739 407.5 L 736 413.5 Q 737.3 418.3 735 419.5 L 735 421.5 L 734 423.5 L 734 425.5 L 728 439.5 L 720 448.5 L 719 452 L 716 453.5 L 714.5 456 L 712 457.5 L 710.5 460 Q 709.1 462.6 704.5 462 L 696.5 469 L 689.5 470 L 684.5 473 L 682.5 472 L 680.5 474 Q 673.3 472.2 671.5 476 L 655.5 476 L 653.5 474 Q 645.8 475.2 642.5 472 L 640.5 472 L 629.5 469 L 624.5 464 L 614 458.5 L 612.5 456 L 610 454.5 L 608.5 452 Q 606.3 452.8 607 450.5 L 606 447 Q 602.2 448.5 603 445.5 L 600.5 442 L 599 441.5 Q 601.5 440 598 438.5 L 591 424.5 Q 593.5 423 590 421.5 L 587 412.5 L 588 410.5 L 586 407.5 Q 587.5 400 585 396.5 L 586 395.5 L 586 389 L 588 388.5 L 588 381.5 L 592 371.5 Q 589.5 370 593 368.5 Q 594.2 358.2 600.5 353 Q 602.8 353.8 602 351.5 L 603 348 L 607 345.5 L 608.5 343 L 611 341.5 L 612.5 339 L 615 337.5 L 616.5 335 L 620.5 332 L 623 332 L 624.5 329 L 635.5 324 L 639.5 324 L 641.5 322 L 647.5 322 L 651.5 319 Z " /></svg>